<svg t="1609293472401" class="icon" viewBox="0 0 1260 1024" version="1.1" xmlns="http://www.w3.org/2000/svg" p-id="3627" width="32" height="32"><path d="M315.076923 177.199262a157.538462 157.538462 0 1 0 157.538462 157.538461 157.538462 157.538462 0 0 0-157.538462-157.538461z m0 236.307692a78.769231 78.769231 0 1 1 78.769231-78.769231A78.832246 78.832246 0 0 1 315.076923 413.506954z" p-id="3628" fill="#ffffff"></path><path d="M1142.153846 0H118.153846A118.279877 118.279877 0 0 0 0 118.153846v787.692308a118.279877 118.279877 0 0 0 118.153846 118.153846h1024A118.279877 118.279877 0 0 0 1260.307692 905.846154v-787.692308A118.279877 118.279877 0 0 0 1142.153846 0z m39.384616 905.846154a39.384615 39.384615 0 0 1-39.384616 39.384615H118.153846a39.447631 39.447631 0 0 1-39.384615-39.384615v-81.92l170.141538-170.141539a55.390523 55.390523 0 0 1 67.048369-5.608369l149.661539 107.126154a127.669169 127.669169 0 0 0 166.549661-19.408738l173.54437-198.687508a32.768 32.768 0 0 1 23.7568-11.657846 30.625477 30.625477 0 0 1 24.512984 10.082461l327.68 327.68z m0-154.135631l-271.84837-271.848369a110.907077 110.907077 0 0 0-156.908307-1.323323c-2.205538 2.142523-4.348062 4.411077-6.301539 6.742646l-173.6704 198.498461a48.458831 48.458831 0 0 1-61.503015 7.24677l-149.661539-107.126154a133.718646 133.718646 0 0 0-168.503138 13.989415L78.769231 712.325908V118.153846a39.510646 39.510646 0 0 1 39.384615-39.384615h1024a39.447631 39.447631 0 0 1 39.384616 39.384615z" p-id="3629" fill="#ffffff"></path></svg>